#!OML:ASF F:\VICON\USERDATA\INSTALL\rory3\rory3.ASF
:FULLY-SPECIFIED
:DEGREES
481
root -14.9931 17.8623 11.7586 40.1482 -96.7831 -47.0521
lowerback 12.3394 1.71238 -2.63468
upperback 1.64646 1.80933 -0.594283
thorax -5.25173 0.904455 0.563992
lowerneck -22.8921 0.815522 -7.81446
upperneck 29.6982 3.02595 2.53353
head 13.7629 0.61105 2.85427
rclavicle 5.71506e-015 -1.27222e-014
rhumerus -38.6804 -18.6178 -76.5794
rradius 29.602
rwrist 8.44394
rhand -14.6167 9.97919
rfingers 7.12502
rthumb 11.5344 -19.6834
lclavicle 5.71506e-015 -1.27222e-014
lhumerus -31.5312 3.83053 83.5641
lradius 29.2171
lwrist -6.75
lhand -18.4996 26.0256
lfingers 7.12502
lthumb 7.78818 55.8622
rfemur -16.2231 -3.03275 13.6918
rtibia 67.0362
rfoot -1.25004 -5.79843
rtoes 11.4074
lfemur 3.26452 -0.104828 -28.2664
ltibia 9.99591
lfoot -2.71037 -8.0794
ltoes 2.43578
482
root -15.1045 17.8531 11.7446 39.3533 -96.5612 -46.4114
lowerback 12.4501 1.72178 -2.59392
upperback 1.71038 1.82985 -0.472483
thorax -5.24911 0.913529 0.663443
lowerneck -23.0007 0.918323 -7.6169
upperneck 29.7026 3.14535 2.4373
head 13.785 0.672381 2.80592
rclavicle -1.41634e-014 1.27222e-014
rhumerus -38.9736 -19.2764 -76.276
rradius 29.6222
rwrist 8.71209
rhand -14.6 9.9574
rfingers 7.12502
rthumb 11.5505 -19.7043
lclavicle -1.41634e-014 1.27222e-014
lhumerus -31.2831 3.35793 83.6542
lradius 29.5496
lwrist -5.97766
lhand -18.5558 26.3453
lfingers 7.12502
lthumb 7.73391 56.1839
rfemur -16.675 -2.90985 14.0384
rtibia 66.2414
rfoot -2.17012 -5.91693
rtoes 10.003
lfemur 3.24254 -0.218459 -28.071
ltibia 11.2031
lfoot -3.72031 -7.62905
ltoes 4.20689
483
root -15.2072 17.835 11.7432 41.3821 -96.5017 -48.4674
lowerback 12.4592 1.69466 -2.86134
upperback 1.77175 1.76312 -0.365748
thorax -5.1989 0.885115 0.938003
lowerneck -23.1721 0.995008 -7.56917
upperneck 29.6877 3.30872 2.29462
head 13.8098 0.729167 2.77267
rclavicle 1.92324e-014 -9.93923e-015
rhumerus -39.0425 -19.6613 -75.896
rradius 29.6079
rwrist 8.88841
rhand -14.4624 9.89715
rfingers 7.12502
rthumb 11.6832 -19.7571
lclavicle 1.92324e-014 -9.93923e-015
lhumerus -31.004 3.06798 83.8972
lradius 29.8538
lwrist -5.27015
lhand -18.563 26.5659
lfingers 7.12502
lthumb 7.72694 56.4048
rfemur -17.2906 -2.87425 13.9263
rtibia 65.3721
rfoot -3.16887 -5.94593
rtoes 8.95468
lfemur 3.05344 -0.288495 -28.2711
ltibia 12.3644
lfoot -4.61204 -7.54614
ltoes 5.10328
484
root -15.3065 17.8116 11.7495 44.1977 -96.4608 -51.1892
lowerback 12.3332 1.73418 -3.42384
upperback 1.81761 1.7695 0.0233461
thorax -5.11068 0.901343 1.66532
lowerneck -23.2656 0.994616 -8.00565
upperneck 29.647 3.55451 2.11606
head 13.7972 0.75999 2.81809
rclavicle -7.00716e-015 -1.51076e-014
rhumerus -38.8365 -19.8429 -75.0057
rradius 29.4037
rwrist 9.15077
rhand -14.1875 9.83337
rfingers 7.12502
rthumb 11.9483 -19.8056
lclavicle -7.00716e-015 -1.51076e-014
lhumerus -30.7756 2.96663 84.6416
lradius 30.2243
lwrist -4.71981
lhand -18.4896 26.6349
lfingers 7.12502
lthumb 7.79782 56.4711
rfemur -18.0461 -3.02572 13.6775
rtibia 64.4309
rfoot -4.14023 -5.94925
rtoes 9.36635
lfemur 2.79183 -0.443281 -28.5698
ltibia 13.386
lfoot -5.4552 -7.45397
ltoes 4.99583
485
root -15.4135 17.7939 11.7442 43.932 -96.1676 -50.9528
lowerback 12.2817 1.58314 -2.89954
upperback 1.91205 1.62999 -0.142029
thorax -4.95538 0.817774 1.2227
lowerneck -23.282 1.20075 -7.60025
upperneck 29.4418 3.70686 2.09819
head 13.7086 0.883349 2.76534
rclavicle 8.57259e-015 -1.07344e-014
rhumerus -38.6457 -20.3354 -75.2516
rradius 29.1166
rwrist 9.40959
rhand -14.071 9.89822
rfingers 7.12502
rthumb 12.0607 -19.7342
lclavicle 8.57259e-015 -1.07344e-014
lhumerus -30.5146 2.25646 84.3149
lradius 30.7322
lwrist -3.9937
lhand -18.3374 26.7977
lfingers 7.12502
lthumb 7.94471 56.6284
rfemur -18.536 -3.13097 13.9486
rtibia 63.3659
rfoot -5.04604 -6.09598
rtoes 9.53629
lfemur 2.77526 -0.678307 -28.3997
ltibia 14.2912
lfoot -6.4025 -7.10402
ltoes 4.51364
486
root -15.5173 17.7754 11.7422 45.5254 -96.0852 -52.5423
lowerback 12.2691 1.60219 -3.45778
upperback 1.94046 1.6053 0.257025
thorax -4.94435 0.818197 1.96033
lowerneck -23.2803 1.31426 -7.63097
upperneck 29.3477 4.03168 1.65616
head 13.665 0.958861 2.64817
rclavicle -2.19906e-014 1.59028e-014
rhumerus -38.5226 -19.7822 -74.8532
rradius 29.0097
rwrist 9.02973
rhand -14.0462 9.98643
rfingers 7.12502
rthumb 12.0845 -19.6446
lclavicle -2.19906e-014 1.59028e-014
lhumerus -30.3143 2.37704 84.8119
lradius 31.0634
lwrist -3.80913
lhand -18.3171 26.5912
lfingers 7.12502
lthumb 7.96427 56.4212
rfemur -19.0365 -3.26442 13.9195
rtibia 62.2173
rfoot -5.83836 -6.26243
rtoes 8.57895
lfemur 2.76606 -0.88144 -28.5291
ltibia 15.0669
lfoot -7.19868 -6.77736
ltoes 3.36301
487
root -15.6175 17.7515 11.7523 49.7073 -96.3357 -56.6177
lowerback 12.3472 1.47015 -3.26746
upperback 1.84225 1.42106 -0.274654
thorax -5.06143 0.722522 1.32349
lowerneck -23.4042 1.49256 -7.17258
upperneck 29.3943 4.08392 1.78326
head 13.7096 1.05234 2.63597
rclavicle -3.27995e-015 2.78299e-015
rhumerus -38.7223 -20.1139 -75.327
rradius 28.8621
rwrist 9.16119
rhand -14.3851 10.4505
rfingers 7.12502
rthumb 11.7577 -19.1995
lclavicle -3.27995e-015 2.78299e-015
lhumerus -30.1179 1.97556 84.2936
lradius 31.2991
lwrist -3.69028
lhand -18.549 26.4739
lfingers 7.12502
lthumb 7.74044 56.3123
rfemur -19.7145 -3.49244 13.3529
rtibia 60.9402
rfoot -6.55113 -6.36061
rtoes 7.80435
lfemur 2.71937 -1.15138 -29.1553
ltibia 15.6269
lfoot -7.71014 -6.52223
ltoes 2.12394
488
root -15.7229 17.7325 11.7576 52.2694 -96.4201 -59.1487
lowerback 12.4045 1.46098 -3.3857
upperback 1.79201 1.38875 -0.30949
thorax -5.14652 0.71054 1.35722
lowerneck -23.3301 1.56425 -7.08621
upperneck 29.3053 4.19252 1.64656
head 13.6568 1.09401 2.58227
rclavicle -7.65321e-015 2.38542e-015
rhumerus -38.8846 -20.1188 -75.2106
rradius 28.7586
rwrist 9.1243
rhand -14.619 10.6601
rfingers 7.12502
rthumb 11.5322 -19.0026
lclavicle -7.65321e-015 2.38542e-015
lhumerus -29.9419 2.00029 84.4446
lradius 31.5051
lwrist -3.99355
lhand -18.867 26.2562
lfingers 7.12502
lthumb 7.43352 56.1056
rfemur -20.2924 -3.86451 13.079
rtibia 59.4732
rfoot -7.0094 -6.46379
rtoes 5.97221
lfemur 2.8447 -1.29477 -29.489
ltibia 16.081
lfoot -8.30144 -6.44848
ltoes 0.909536
489
root -15.8266 17.7183 11.754 54.1485 -96.3658 -61.0171
lowerback 12.4468 1.51859 -3.86913
upperback 1.78823 1.41963 0.035843
thorax -5.19608 0.739351 1.98617
lowerneck -23.2629 1.55778 -7.2416
upperneck 29.1435 4.33315 1.35816
head 13.5756 1.10266 2.51254
rclavicle -1.75676e-014 9.54166e-015
rhumerus -38.9166 -19.7868 -74.7751
rradius 28.7357
rwrist 8.93927
rhand -14.6741 10.6121
rfingers 7.12502
rthumb 11.479 -19.0536
lclavicle -1.75676e-014 9.54166e-015
lhumerus -29.7408 2.29803 84.9307
lradius 31.7384
lwrist -4.66591
lhand -18.8651 26.0087
lfingers 7.12502
lthumb 7.43534 55.8581
rfemur -20.7101 -4.03085 13.0401
rtibia 57.8455
rfoot -7.42978 -6.74608
rtoes 5.18775
lfemur 3.01926 -1.22362 -29.5558
ltibia 16.4637
lfoot -8.83981 -6.64266
ltoes 1.32275
490
root -15.9303 17.7017 11.7498 55.5288 -96.215 -62.3265
lowerback 12.3088 1.43298 -3.78486
upperback 1.88133 1.32383 0.0385726
thorax -5.0135 0.685683 1.96113
lowerneck -23.4479 1.62457 -7.10119
upperneck 29.0364 4.40209 1.34824
head 13.5679 1.15421 2.4993
rclavicle -4.64659e-015 7.15625e-015
rhumerus -38.7356 -19.7204 -74.9614
rradius 28.6472
rwrist 9.12712
rhand -14.5959 10.5886
rfingers 7.12502
rthumb 11.5545 -19.0729
lclavicle -4.64659e-015 7.15625e-015
lhumerus -29.325 2.17124 84.8325
lradius 31.9887
lwrist -5.02145
lhand -18.3127 25.8486
lfingers 7.12502
lthumb 7.96857 55.6784
rfemur -21.002 -3.8976 13.1025
rtibia 56.0679
rfoot -7.91416 -7.23993
rtoes 5.83599
lfemur 3.20031 -1.26113 -29.5072
ltibia 16.7103
lfoot -9.12115 -6.68332
ltoes 2.73888
